<mxfile host="65bd71144e">
    <diagram id="5jzN9WQUAMki_xZ2aq8l" name="Page-1">
        <mxGraphModel dx="520" dy="478" grid="1" gridSize="10" guides="1" tooltips="1" connect="1" arrows="1" fold="1" page="1" pageScale="1" pageWidth="827" pageHeight="1169" background="#ffffff" math="0" shadow="0">
            <root>
                <mxCell id="0"/>
                <mxCell id="1" parent="0"/>
                <mxCell id="2" value="INICIO" style="ellipse;whiteSpace=wrap;html=1;" vertex="1" parent="1">
                    <mxGeometry x="220" width="120" height="80" as="geometry"/>
                </mxCell>
                <mxCell id="3" value="rango" style="shape=parallelogram;perimeter=parallelogramPerimeter;whiteSpace=wrap;html=1;fixedSize=1;" vertex="1" parent="1">
                    <mxGeometry x="220" y="100" width="120" height="60" as="geometry"/>
                </mxCell>
                <mxCell id="4" value="contador &amp;lt; len(rango)" style="rhombus;whiteSpace=wrap;html=1;" vertex="1" parent="1">
                    <mxGeometry x="200" y="360" width="160" height="160" as="geometry"/>
                </mxCell>
                <mxCell id="5" value="contador = 0" style="rounded=0;whiteSpace=wrap;html=1;" vertex="1" parent="1">
                    <mxGeometry x="190" y="190" width="180" height="90" as="geometry"/>
                </mxCell>
            </root>
        </mxGraphModel>
    </diagram>
</mxfile>